<?xml version="1.0" encoding="UTF-8"?>
<svg width="700pt" height="700pt" version="1.1" viewBox="0 0 700 700" xmlns="http://www.w3.org/2000/svg" xmlns:xlink="http://www.w3.org/1999/xlink">
 <defs>
  <symbol id="c" overflow="visible">
   <path d="m28.375-29.047v-18.219h10.938v47.266h-10.938v-4.9219c-1.5 2.0117-3.1523 3.4805-4.9531 4.4062-1.8047 0.92578-3.8867 1.3906-6.25 1.3906-4.1992 0-7.6484-1.6602-10.344-4.9844-2.6875-3.332-4.0312-7.625-4.0312-12.875 0-5.2383 1.3438-9.5234 4.0312-12.859 2.6953-3.332 6.1445-5 10.344-5 2.3438 0 4.4219 0.47656 6.2344 1.4219 1.8125 0.9375 3.4688 2.3984 4.9688 4.375zm-7.1719 22.031c2.332 0 4.1094-0.84766 5.3281-2.5469 1.2266-1.707 1.8438-4.1797 1.8438-7.4219 0-3.2383-0.61719-5.707-1.8438-7.4062-1.2188-1.707-2.9961-2.5625-5.3281-2.5625-2.3125 0-4.0859 0.85547-5.3125 2.5625-1.2188 1.6992-1.8281 4.168-1.8281 7.4062 0 3.2422 0.60938 5.7148 1.8281 7.4219 1.2266 1.6992 3 2.5469 5.3125 2.5469z"/>
  </symbol>
  <symbol id="b" overflow="visible">
   <path d="m23.328-7.0156c2.332 0 4.1094-0.84766 5.3281-2.5469 1.2266-1.707 1.8438-4.1797 1.8438-7.4219 0-3.2383-0.61719-5.707-1.8438-7.4062-1.2188-1.707-2.9961-2.5625-5.3281-2.5625-2.3242 0-4.1094 0.85938-5.3594 2.5781-1.25 1.7109-1.875 4.1719-1.875 7.3906s0.625 5.6875 1.875 7.4062c1.25 1.7109 3.0352 2.5625 5.3594 2.5625zm-7.2344-22.031c1.5-1.9766 3.1602-3.4375 4.9844-4.375 1.8203-0.94531 3.9219-1.4219 6.2969-1.4219 4.1875 0 7.6289 1.668 10.328 5 2.6953 3.3359 4.0469 7.6211 4.0469 12.859 0 5.25-1.3516 9.543-4.0469 12.875-2.6992 3.3242-6.1406 4.9844-10.328 4.9844-2.375 0-4.4766-0.46875-6.2969-1.4062-1.8242-0.9375-3.4844-2.3984-4.9844-4.3906v4.9219h-10.875v-47.266h10.875z"/>
  </symbol>
  <symbol id="a" overflow="visible">
   <path d="m5.2188-34.031h10.875v34.031h-10.875zm0-13.234h10.875v8.8594h-10.875z"/>
  </symbol>
 </defs>
 <g>
  <path d="m270.2 342.57-4.4648 5c-7.0625 6.9375-18.039 8.9258-27.332 4.1602-7.8828-4.043-12.844-12.156-12.844-21.016v-125.38c0-29.582 23.984-53.566 53.566-53.566h53.57l13.137 43.176 2.1172 6.9531 0.36719 1.207 0.32031-1.2188 1.8359-7.0352 11.238-43.082h55.797c29.586 0 53.57 23.984 53.57 53.566v124.34c0 13.766-11.16 24.926-24.926 24.926-6.6406 0-12.891-2.6406-17.484-7.1602-2.8555-3.7422-4.3438-5.7266-4.4648-5.9492v180.79c0 17.258-13.988 31.246-31.246 31.246s-31.246-13.988-31.246-31.246v-145.08h-29.016v145.08c0 17.258-13.992 31.246-31.25 31.246-17.258 0-31.246-13.988-31.246-31.246zm75.887-208.65c-36.98 0-66.961-29.977-66.961-66.957 0-36.98 29.98-66.961 66.961-66.961s66.961 29.98 66.961 66.961c0 36.98-29.98 66.957-66.961 66.957z"/>
  <use x="458.039062" y="746.667969" xlink:href="#c"/>
  <use x="524.242188" y="746.667969" xlink:href="#b"/>
  <use x="675.816406" y="746.667969" xlink:href="#a"/>
 </g>
</svg>
